<svg width="149" height="25" viewBox="0 0 149 25" fill="none" xmlns="http://www.w3.org/2000/svg">
<path fill-rule="evenodd" clip-rule="evenodd" d="M60.7197 1.09131V5.09473H66.7085V24.445H71.0785V5.09473H77.0673V1.09131H60.7197Z" fill="#030B59"/>
<path fill-rule="evenodd" clip-rule="evenodd" d="M85.3965 20.3705C87.9206 20.3705 89.6481 18.3677 89.6481 15.8888C89.6481 13.4105 87.9206 11.3739 85.3965 11.3739C82.8724 11.3739 81.1449 13.4105 81.1449 15.8888C81.1449 18.3677 82.8724 20.3705 85.3965 20.3705M85.3964 7.29932C90.2789 7.29932 93.9656 11.1361 93.9656 15.889C93.9656 20.6425 90.2789 24.445 85.3964 24.445C80.5139 24.445 76.8271 20.6425 76.8271 15.889C76.8271 11.1361 80.5139 7.29932 85.3964 7.29932" fill="#030B59"/>
<path fill-rule="evenodd" clip-rule="evenodd" d="M105.236 20.3705C107.761 20.3705 109.488 18.3677 109.488 15.8888C109.488 13.4105 107.761 11.3739 105.236 11.3739C102.712 11.3739 100.985 13.4105 100.985 15.8888C100.985 18.3677 102.712 20.3705 105.236 20.3705M105.237 7.29932C110.119 7.29932 113.806 11.1361 113.806 15.889C113.806 20.6425 110.119 24.445 105.237 24.445C100.354 24.445 96.6675 20.6425 96.6675 15.889C96.6675 11.1361 100.354 7.29932 105.237 7.29932" fill="#030B59"/>
<mask id="mask0" mask-type="alpha" maskUnits="userSpaceOnUse" x="0" y="0" width="149" height="25">
<path fill-rule="evenodd" clip-rule="evenodd" d="M0 24.445H149V0H0V24.445Z" fill="white"/>
</mask>
<g mask="url(#mask0)">
<path fill-rule="evenodd" clip-rule="evenodd" d="M117.347 24.1057H121.665V0H117.347V24.1057Z" fill="#030B59"/>
<path fill-rule="evenodd" clip-rule="evenodd" d="M125.198 24.1055H129.515V7.29917H125.198V24.1055ZM127.403 0.191895C128.623 0.191895 129.608 1.14625 129.608 2.39233C129.608 3.63897 128.623 4.59332 127.403 4.59332C126.184 4.59332 125.199 3.63897 125.199 2.39233C125.199 1.14625 126.184 0.191895 127.403 0.191895V0.191895Z" fill="#030B59"/>
<path fill-rule="evenodd" clip-rule="evenodd" d="M133.058 24.1057V7.29932H137.21V8.96334C138.438 7.94478 139.966 7.29932 141.76 7.29932C143.985 7.29932 146.011 8.31788 147.34 9.94759C148.403 11.238 149 12.9014 149 15.7197V24.1057H144.683V15.3798C144.683 13.7501 144.317 12.9014 143.719 12.2903C143.155 11.7135 142.291 11.3736 141.295 11.3736C139.468 11.3736 137.973 12.5621 137.376 13.4107V24.1057H133.058Z" fill="#030B59"/>
<path fill-rule="evenodd" clip-rule="evenodd" d="M6.85893 5.55054C6.85893 6.51486 6.09157 7.29926 5.14876 7.29926C4.20541 7.29926 3.43805 6.51486 3.43805 5.55054C3.43805 4.58622 4.20541 3.80181 5.14876 3.80181C6.09157 3.80181 6.85893 4.58622 6.85893 5.55054M48.0501 2.08364C47.9385 1.95245 47.7685 1.88989 47.6006 1.91647C47.4328 1.94414 47.2903 2.05818 47.2248 2.21871L46.178 4.77454C46.1699 4.79502 46.152 4.80942 46.1314 4.81384L44.3552 5.15816C44.3433 5.16038 44.3303 5.15872 44.3173 5.15263C44.3049 5.14709 44.2967 5.1399 44.2902 5.13104L43.3041 3.65855C43.2916 3.63973 43.2889 3.61648 43.2976 3.59599L44.3633 0.994774C44.4289 0.833686 44.4088 0.649901 44.3097 0.508741C44.2117 0.366474 44.0482 0.290081 43.8781 0.298385C43.2581 0.338242 42.6559 0.492687 42.0883 0.755632C40.7838 1.36124 39.8134 2.46228 39.3568 3.85728C38.8668 5.35247 39.0693 6.98051 39.9135 8.32402C40.5044 9.26454 40.5758 10.3977 40.1047 11.3559C37.1544 17.3533 31.2452 21.0799 24.6834 21.0799C24.6455 21.0799 24.6082 21.0849 24.573 21.0932C18.055 21.0517 12.1951 17.3339 9.26161 11.3698C8.81322 10.458 8.86033 9.36805 9.38724 8.45079C9.66559 8.02786 9.88112 7.56785 10.0279 7.08624C10.3577 6.02616 10.3517 4.91459 10.0095 3.87112C9.62931 2.70918 8.86033 1.71773 7.8482 1.08168C7.81571 1.0601 7.78159 1.03906 7.74368 1.01636L7.71823 1.00142C6.81279 0.458366 5.77737 0.215349 4.72355 0.299492C2.24711 0.495455 0.224476 2.54975 0.0181517 5.07734C-0.209293 7.86069 1.72561 10.339 4.42299 10.7193C4.6017 10.7448 4.73763 10.778 4.85135 10.8245C5.61437 11.1367 6.23876 11.7478 6.61025 12.545C9.91253 19.6334 17.0066 24.2142 24.6834 24.2142C24.7224 24.2142 24.7609 24.2092 24.7972 24.1993C32.4301 24.1544 39.4706 19.5847 42.7561 12.5311C43.2223 11.5297 44.0996 10.8212 45.1014 10.6363C46.8122 10.3207 48.2337 9.15438 48.9046 7.51747C49.6585 5.67575 49.3314 3.59323 48.0501 2.08364" fill="#FF7517"/>
</g>
</svg>
